
<global>
amp_veltrack=0
ampeg_release=0.25
</global>

<group>
group_label=Group_0-45
lpc_hicc1=42
lpc_locc1=0

<region>
hikey=a#3
hivel=127
lokey=a3
loop_end=244441
loop_mode=loop_continuous
loop_start=79459
loop_xfade=19991
lovel=1
lpc=1IdfQvrHH8M5IilDGVOZwvxwfD8SV31BEsaUQLhmBME/AwnBrxU6QV90FMH3ud1Aqn/kvnBU0cCZoTNB1Ie2wGlVGsARTGHApcMrQZkSocAcQLA/BhVQPUL4gMDcMitA
lpc_rms=-21.90
offset=2092
pitch_keycenter=a#3
sample=Cor_tremolo_PP_A#3.opus
tune=-20.00
</region>

<region>
hikey=a#4
hivel=127
lokey=a4
loop_end=271613
loop_mode=loop_continuous
loop_start=88292
loop_xfade=22213
lovel=1
lpc=8uGDQlGsTMNxA35D91AYww4kDUGfJXlCZYsCwoENGEHUqRPCSOwkQl4afsGEt1LBid8BQop4vcH01j9B+2YRwRHLUMDGzwg/OhyNQWYmhcGLyopAFy6BQQM07sHTnmhB
lpc_rms=-19.04
offset=2699
pitch_keycenter=a#4
sample=Cor_tremolo_PP_A#4.opus
tune=-20.00
</region>

<region>
hikey=c4
hivel=127
lokey=b3
loop_end=255428
loop_mode=loop_continuous
loop_start=83031
loop_xfade=20889
lovel=1
lpc=PK4pQgxg58LWYOZCd0gqwiEYjcGUfOlBJDCXwHdwJ8AoJVPBDbueQaIIk8GaKRxBmgKhP3Q4FL9XqIPAzuvKQD+8MMDz///AlRsxQY2Wmr+nEEPBEmcyQbGED0CDa4nA
lpc_rms=-24.63
offset=1316
pitch_keycenter=c4
sample=Cor_tremolo_PP_C4.opus
tune=-20.00
</region>

<region>
hikey=c5
hivel=127
lokey=b4
loop_end=224126
loop_mode=loop_continuous
loop_start=72856
loop_xfade=18329
lovel=1
lpc=dzjzQa/YhML8UFRCgraewEAhEMLsZRNCUsMxwUOTK75R7CO/vwBdQF+F/8AYtABB/NIgQJhjZcGzwTlBX8etQEMgJMG02HI/nVINQQvx9MDnEJnAWUkIQSIO5sC8JLRA
lpc_rms=-29.77
offset=1345
pitch_keycenter=c5
sample=Cor_tremolo_PP_C5.opus
tune=-20.00
</region>

<region>
hivel=127
key=d#5
loop_end=235161
loop_mode=loop_continuous
loop_start=76443
loop_xfade=19232
lovel=1
lpc=HQp5Qnk//sLr27hC8yAAQMYrjMKiqXpCW7QUQKn7CcKNLZpBnWLgv5gvnUDaFn/B5m/RQbaPdcEqkEo/LtcVQc15tMEFa69BxoRoPpVHC8FwR4FAY4uuPx1HGMGvujtB
lpc_rms=-22.26
offset=13743
sample=Cor_tremolo_PP_D#5.opus
tune=-20.00
</region>

<region>
hikey=d4
hivel=127
lokey=c#4
loop_end=262410
loop_mode=loop_continuous
loop_start=85301
loop_xfade=21460
lovel=1
lpc=XtRyQnEoLMNB2ylDaElNwowFC8IVHiNCuLPTvx4DSj8SlxnChsYhQp/tb8HLvc/Ao+X8QNaktL1do5ZAf6qovwFItsCSzWTAtUI/QdICKsH9W1ZAsLAKQSCnQMEMWJJA
lpc_rms=-20.10
offset=1138
pitch_keycenter=d4
sample=Cor_tremolo_PP_D4.opus
tune=-20.00
</region>

<region>
hikey=d5
hivel=127
lokey=c#5
loop_end=266340
loop_mode=loop_continuous
loop_start=86578
loop_xfade=21782
lovel=1
lpc=3OyVQl7eL8OXXhhDCJV0wTWDzcIgcMZCP523wQ0BcsHS1t1BSlyqwbnrGkAK8M4/rAyAQGxS0MDjCqLAiAO/QZys7MFjP/9B2wAhwdOB3cH2UBVCgVYRwd0vs8H/T5tB
lpc_rms=-18.17
offset=18134
pitch_keycenter=D5
sample=Cor_tremolo_PP_D5.opus
tune=-20.00
</region>

<region>
hivel=127
key=e3
loop_end=236702
loop_mode=loop_continuous
loop_start=76944
loop_xfade=19358
lovel=1
lpc=sk60QpykhsP735pDysczw+jmf0KPqfnBWWdoQi2wcMIkYIBAi1wUQtN1NMIZGwlC1iTWvwdtrsHSVrxBpGO3wGFjacH3uBzAphrJQWXUOcFLYDJAkI2UwAJIl8Bs3LdA
lpc_rms=-18.68
offset=24955
sample=Cor_tremolo_PP_E3.opus
tune=-20.00
</region>

<region>
hikey=e4
hivel=127
lokey=d#4
loop_end=267717
loop_mode=loop_continuous
loop_start=87026
loop_xfade=21894
lovel=1
lpc=U58oQnxL3MJR1cBCZ7+/wZV7jMHdGshByo6HwcC5aUEI8J7AijHNwIQrB8EQqypBL9q9QD4WDMHifZ7Aj+qFQbEMssBpoyXAGO09wGBfkUDNb/nAvzB+QOZkkUB7cjfA
lpc_rms=-23.76
offset=1264
pitch_keycenter=e4
sample=Cor_tremolo_PP_E4.opus
tune=-20.00
</region>

<region>
hikey=f#3
hivel=127
lokey=f3
loop_end=258205
loop_mode=loop_continuous
loop_start=83934
loop_xfade=21116
lovel=1
lpc=c6aIQnxjRcOod1xDBwz+wh2xHEJEySfBP9/UQXJNjsFu+CPA2kDIQD3VksF8rmJBuu/PPpFA98Df8n1BQ07uwDvItsAWH3JAqxquQL4k9MBdl/S+lSlmvNLE1EAbf3fA
lpc_rms=-21.32
offset=1996
pitch_keycenter=f#3
sample=Cor_tremolo_PP_F#3.opus
tune=-20.00
</region>

<region>
hikey=f#4
hivel=127
lokey=f4
loop_end=248786
loop_mode=loop_continuous
loop_start=80872
loop_xfade=20346
lovel=1
lpc=G3yQQhVbWcPASIJDpcU1wwqkyULr3DfCPba4QZOJAsF8w43Bj4fXQTOR4MBBdofB0NSeQAGvBEHFshNBbbfMwF0sPMGl4l1BNrmDwRYvgEDDJ7xB6cmtwRUSHEBDmQJA
lpc_rms=-18.04
offset=1059
pitch_keycenter=f#4
sample=Cor_tremolo_PP_F#4.opus
tune=-20.00
</region>

<region>
hikey=f5
hivel=127
lokey=e5
loop_end=262548
loop_mode=loop_continuous
loop_start=85345
loop_xfade=21472
lovel=1
lpc=M/46QlNUusI9IY1Co2XYP44dPcJPBvZBoWtjQUm3wsFGpgVBqyBfQUEUncHpx01BmZ4KQIIHj8E2MK5Bf7EZwFc/R8HgyIVBAwplwBpyGME7gvlAo5Z7QAtsEsH2qBtB
lpc_rms=-22.81
offset=669
pitch_keycenter=f5
sample=Cor_tremolo_PP_F5.opus
tune=-20.00
</region>

<region>
hikey=g#3
hivel=127
lokey=g3
loop_end=267837
loop_mode=loop_continuous
loop_start=87065
loop_xfade=21904
lovel=1
lpc=6gxcQlV3F8NAbhtDhDyTwhHgRkFI1TG/I1hhQfiTNsFH/U6+W1adv+nY6L9jlXBBHNFywRo6pr//u+pAp1r2P18VjsD9CcS/zFhnQH/tar+5q+E/6r/2wC+35UBL1ca/
lpc_rms=-23.07
offset=11775
pitch_keycenter=g#3
sample=Cor_tremolo_PP_G#3.opus
tune=-20.00
</region>

<region>
hikey=g#4
hivel=127
lokey=g4
loop_end=232854
loop_mode=loop_continuous
loop_start=75693
loop_xfade=19043
lovel=1
lpc=91+8QqsNXMNSIElD16vdwsy9REJAHhnCro8cQjU9x8DTFvTAwTqhwGaSf0C+pmhBpZRqwUqDBUFyXgjB0JDTP2MckMAjR5RB15+bwbXxFkGQdwA+ADIwQAbWvcHA1ZtB
lpc_rms=-18.44
offset=13469
pitch_keycenter=g#4
sample=Cor_tremolo_PP_G#4.opus
tune=-20.00
</region>

<region>
hikey=D6
hivel=127
lokey=f#5
loop_end=259607
loop_mode=loop_continuous
loop_start=84389
loop_xfade=21231
lovel=1
lpc=dBj1QhTPisOhHJNDCYTgwlu3h8LUd9NCSxKswZDVcsBkxrrBgyE1Qm49h8FBdBRBsWOdwfEHx0Ho2O5Bb01fwplBJ0JnTRvBJvbRQe0BEcKdEs8/t6aeQmhQssJMJEJC
lpc_rms=-11.82
offset=5179
pitch_keycenter=G5
sample=Cor_tremolo_PP_G5.opus
tune=-20.00
</region>
</group>

<group>
group_label=Group_46-90
lpc_hicc1=84
lpc_locc1=43

<region>
hikey=a#3
hivel=127
lokey=a3
loop_end=246143
loop_mode=loop_continuous
loop_start=80013
loop_xfade=20130
lovel=1
lpc=PrdZQqzJJMO3jDxDT166wmDW6kBV65ZA+V6nQfv1usE1EcDA3WrsQafdBcJx8cVBu/71wPxh08C+GxFB2XWTwB/1uUAeeYbBvc+GQV5spb88NbjABz7gQMPgB8HXunhA
lpc_rms=-18.82
offset=2189
pitch_keycenter=a#3
sample=Cor_tremolo_MF_A#3.opus
tune=-20.00
</region>

<region>
hikey=a#4
hivel=127
lokey=a4
loop_end=273301
loop_mode=loop_continuous
loop_start=88841
loop_xfade=22351
lovel=1
lpc=FQZvQgI3P8OxtXhDJaofw252tEHQmiNClbeGwCPjAMIwAgRBE+IEQsv5VcIpmytCBGpWwYrossEilTNC1PiewU/duMG4E6pBPXY6QR0ry8FQ2SZBjghiQbB+rME0fg9B
lpc_rms=-15.17
offset=1712
pitch_keycenter=a#4
sample=Cor_tremolo_MF_A#4.opus
tune=-20.00
</region>

<region>
hikey=c4
hivel=127
lokey=b3
loop_end=258618
loop_mode=loop_continuous
loop_start=84068
loop_xfade=21150
lovel=1
lpc=ikcSQs0MycLEu81CkcIewsTRc8Fk1LJBWFm7QMU9V8FmRxjBtL3BQSkrscH8mDJB6xMkPuqYkr/ZqYq/cs2+P3l2kb9y39e9P8I9wDlcBUHsryvBXGFDQByc/0D1+rXA
lpc_rms=-22.02
offset=938
pitch_keycenter=c4
sample=Cor_tremolo_MF_C4.opus
tune=-20.00
</region>

<region>
hikey=c5
hivel=127
lokey=b4
loop_end=281121
loop_mode=loop_continuous
loop_start=91383
loop_xfade=22991
lovel=1
lpc=NrRNQnDzEcMZLR9Dk9iAwhyeH8JrwZRCVbwTwhAukD/tAdO+/7wTQdoitcFZu+5B1/DTwE9T2cFGRwJCABB+wOCSssHTVJdB5c49PxtWDsGLjJNARwmOwLZEiEDP5oK+
lpc_rms=-19.55
offset=15747
pitch_keycenter=c5
sample=Cor_tremolo_MF_C5.opus
tune=-20.00
</region>

<region>
hivel=127
key=d#5
loop_end=264231
loop_mode=loop_continuous
loop_start=85892
loop_xfade=21609
lovel=1
lpc=+IXUQdaPhsImFYVCmCeRwXgF8cGqrRVCqpqPwCvys8G+tYZBSOOMQDYjZ8HGTDBBEgJRwPmQmcB9gDlBqmu1wM//3cDI6BRBcXgdP6tiBcFPFbM/yRN1QQAjnMFbsA5B
lpc_rms=-23.32
offset=679
sample=Cor_tremolo_MF_D#5.opus
tune=-20.00
</region>

<region>
hikey=d4
hivel=127
lokey=c#4
loop_end=270594
loop_mode=loop_continuous
loop_start=87961
loop_xfade=22130
lovel=1
lpc=MrNYQv4hE8NTnQFDE27CwRmH78FYPgVC4v7SwJR0ccEUTti/EKQXQehXYr9gUQ7AnzM9QKFXw7/TQCZB/hEnwZdF7MAuNTJAT9y5QGy5ikDefQTA9zRJwOgWLMDqSTtA
lpc_rms=-16.27
offset=504
pitch_keycenter=d4
sample=Cor_tremolo_MF_D4.opus
tune=-20.00
</region>

<region>
hikey=d5
hivel=127
lokey=c#5
loop_end=283743
loop_mode=loop_continuous
loop_start=92235
loop_xfade=23205
lovel=1
lpc=8/uoQlRKVcO7K0xDOkN2wglLaMIG9n1C+5LjwJ0ZucAs3xHBA1rwQTBgNcKWx+RBIQ2IQPXW18GWH2JBkZ5PQaL9EcAH4tjATu2QPvNSSECrHyHBNjZ7Qefhi8HnukBB
lpc_rms=-15.47
offset=12516
pitch_keycenter=D5
sample=Cor_tremolo_MF_D5.opus
tune=-20.00
</region>

<region>
hivel=127
key=e3
loop_end=227472
loop_mode=loop_continuous
loop_start=73943
loop_xfade=18603
lovel=1
lpc=sROOQkupR8PH4EFDqpBwwgk+bMHyUvQ/lfoMQo/SWMJ6DVRCYU84wlYCzkG+P1+//rUmwXhlFEFy3M5A8smZwekDxkAAg49An3/KPYBcdkCwc+vAfbMzQbFgjcGAuhRB
lpc_rms=-18.35
offset=1271
sample=Cor_tremolo_MF_E3.opus
tune=-20.00
</region>

<region>
hikey=e4
hivel=127
lokey=d#4
loop_end=258601
loop_mode=loop_continuous
loop_start=84062
loop_xfade=21149
lovel=1
lpc=qkYZQrRT1sIErdlCri0bwlv3xMHMMTZClTjOwV0YhUCdYsFAQJEBwTt04MDTKTNBOxqXQHSThcGwGhZBRbY2QYfym8HcI41BrC0swSltasBPacNAE5ncv13POEAtouq/
lpc_rms=-20.20
offset=400
pitch_keycenter=e4
sample=Cor_tremolo_MF_E4.opus
tune=-20.00
</region>

<region>
hikey=f#3
hivel=127
lokey=f3
loop_end=270604
loop_mode=loop_continuous
loop_start=87964
loop_xfade=22131
lovel=1
lpc=fIOQQgE2VMPydXlDxwMmwyWdhUIsSEjBjWEDQiZLLMJccVhBXnhlQLeRk8Ef78NBsM6vwZVsMUFMkCdBJEalP9Ezu8H8rqxBj3SYwdDxMUEun4+/j7cmv/73gkC9+VzA
lpc_rms=-18.27
offset=6879
pitch_keycenter=f#3
sample=Cor_tremolo_MF_F#3.opus
tune=-20.00
</region>

<region>
hikey=f#4
hivel=127
lokey=f4
loop_end=261650
loop_mode=loop_continuous
loop_start=85053
loop_xfade=21398
lovel=1
lpc=KILLQpqGj8Odzp9DAIhOw7taq0KCFGLBt1T2QQwpe8H4kDnCOZc9Qnovq8FTEJRBNzY/wuoLekKh8a7BrrgAwXe7m8A4ueBBfdf1wVlyQDyeJctBvYqiwfiXEEGPejzA
lpc_rms=-13.45
offset=2470
pitch_keycenter=f#4
sample=Cor_tremolo_MF_F#4.opus
tune=-20.00
</region>

<region>
hikey=f5
hivel=127
lokey=e5
loop_end=243213
loop_mode=loop_continuous
loop_start=79060
loop_xfade=19890
lovel=1
lpc=pnM8QsoE78KfEeVC5ZuhwY8JKMK/pa9Bs3OzQZRk9MFNnzBAzD0CQrqVE8JsS49BAWPLQPLJBcJ4JVdCBgYNwo3Nl8CcbdhBR6xOwYd4Y8G4CKBB474FQaBh28HwqIRB
lpc_rms=-17.55
offset=14176
pitch_keycenter=f5
sample=Cor_tremolo_MF_F5.opus
tune=-20.00
</region>

<region>
hikey=g#3
hivel=127
lokey=g3
loop_end=252478
loop_mode=loop_continuous
loop_start=82072
loop_xfade=20648
lovel=1
lpc=IzReQiasIsMWAD5DyhLswgbnFEJvjra/rP2gQYMlBMITJwdA0mrDQcxru8GnMJ5BKqWCwT6PEUHkBOPACh/2QK1xRr/qlv7Axp3oQLI5l0AMTF7BDhreQObu8z5zSDe7
lpc_rms=-20.70
offset=2609
pitch_keycenter=g#3
sample=Cor_tremolo_MF_G#3.opus
tune=-20.00
</region>

<region>
hikey=g#4
hivel=127
lokey=g4
loop_end=276127
loop_mode=loop_continuous
loop_start=89760
loop_xfade=22582
lovel=1
lpc=yKOvQpS8b8Nn0IVDIWE7wxcG40IS247CPhpQQqFtMsGyMB/Cic0pQp+oPD9O3qDBc5w1PZPyJkHsP5c/ILEUwX/G6cAUXNBBFSN6wTc7tr4gVATANd/+QRvSXMJHwd9B
lpc_rms=-15.25
offset=15300
pitch_keycenter=g#4
sample=Cor_tremolo_MF_G#4.opus
tune=-20.00
</region>

<region>
hikey=D6
hivel=127
lokey=f#5
loop_end=270701
loop_mode=loop_continuous
loop_start=87996
loop_xfade=22138
lovel=1
lpc=JrXLQj7KccM3BJdDkYtDw8uRwkHg1MxC83+9wu77vkHlAjJCPrNRwvmAU0Jd/AzCtoM7QaPTs0FSrrPBB+rFQVkK+b9xu+7BA25zQp/+7cFMFcPBzouXQgpli8LTsCJC
lpc_rms=-9.57
offset=1245
pitch_keycenter=G5
sample=Cor_tremolo_MF_G5.opus
tune=-20.00
</region>
</group>

<group>
group_label=Group_91-127
lpc_hicc1=127
lpc_locc1=85

<region>
hikey=a#3
hivel=127
lokey=a3
loop_end=272160
loop_mode=loop_continuous
loop_start=88470
loop_xfade=22258
lovel=1
lpc=DSkRQn0IysI11+BCTmOSwpHzFkKZTyzBivhpvwFLKMF3+J5BpMxrwDNWgsGTLZ1Bdl9SwR5l9z+ld+pAJOzVwJAhc8Ap/w9BGDEuwGqZeb85X7s/s8kOwPxt0j/n9TS/
lpc_rms=-19.80
offset=15833
pitch_keycenter=a#3
sample=Cor_tremolo_FF_A#3.opus
tune=-20.00
</region>

<region>
hikey=a#4
hivel=127
lokey=a4
loop_end=278692
loop_mode=loop_continuous
loop_start=90593
loop_xfade=22792
lovel=1
lpc=79v2QRZssMIapNlCaYaRwtTc/UElIJfBIqCSQZnv0cCIAjvBXEfoQaJ+EsK5cgNCwL+WwWMF/j+Y8CdBRQpSwfrWGEHgs97A/FO7QOt/dcAnK0ZA0f1Tv4Y+TT7C7Om+
lpc_rms=-17.64
offset=13001
pitch_keycenter=a#4
sample=Cor_tremolo_FF_A#4.opus
tune=-20.00
</region>

<region>
hikey=c4
hivel=127
lokey=b3
loop_end=273304
loop_mode=loop_continuous
loop_start=88842
loop_xfade=22351
lovel=1
lpc=fSBLQn8NCcO4SQdDX3KEwrliwUEBm0nA5cBVPpV33z+dERvBOhn1P+TbGcGbxQJC9LnnwVGlK0GKMktAo+zzwOigisCdOjdBusFPwLX3cUBmIAXBlpgEP81DuEB6SSnA
lpc_rms=-14.28
offset=624
pitch_keycenter=c4
sample=Cor_tremolo_FF_C4.opus
tune=-20.00
</region>

<region>
hikey=c5
hivel=127
lokey=b4
loop_end=265070
loop_mode=loop_continuous
loop_start=86165
loop_xfade=21678
lovel=1
lpc=QV3WQekynMKIG79CrPF4wpGQg0EGsyRA+voWQUOMd8HGGhdAS+aGQTG678FeltNB1bNBweeaSMDkrkNBtKn9wPwCqr/lBKBAC6RvviTnrsC9yPI/eIPBQPsV9sAFfFNA
lpc_rms=-20.06
offset=924
pitch_keycenter=c5
sample=Cor_tremolo_FF_C5.opus
tune=-20.00
</region>

<region>
hivel=127
key=d#5
loop_end=261455
loop_mode=loop_continuous
loop_start=84990
loop_xfade=21382
lovel=1
lpc=IRx+QhnQHMPSuhpD+pF2wnsxpcFGpgJCe/LkQAPPwcHcML5Aqe6mQbl7/8EvRY9BjZxHQRBzEsKR/vFB6lQYQcvE5cH9cSlBlItZQS6CksFpEmDADn0SQqh0KsJbx59B
lpc_rms=-14.16
offset=5281
sample=Cor_tremolo_FF_D#5.opus
tune=-20.00
</region>

<region>
hikey=d4
hivel=127
lokey=c#4
loop_end=266207
loop_mode=loop_continuous
loop_start=86535
loop_xfade=21771
lovel=1
lpc=VBEWQplOz8JS2NVCripGwgY+GkEauls+rCdCPsDyBsA37hNB4FlRwZ5VYUCDPkNAnIE6QOrGD8GANuRA8QwdwJHSSr8T+aVAMTIrwRYHTEEVsOXABOEtwI1N0kCPFTjA
lpc_rms=-15.07
offset=1252
pitch_keycenter=d4
sample=Cor_tremolo_FF_D4.opus
tune=-20.00
</region>

<region>
hikey=d5
hivel=127
lokey=c#5
loop_end=274554
loop_mode=loop_continuous
loop_start=89248
loop_xfade=22454
lovel=1
lpc=ZmdlQqmLDMPWtRRD/fWlwj4pG0FPS8VBOaTFwclklEHZ+CHBqkg6Qbijh8F0YF5Bw2XtwBNOZECvrTxBUXvuwbZTFUKfjrTBDsy/wMtanEHsf2rBsbVuQHYVkT8jYjBA
lpc_rms=-14.29
offset=575
pitch_keycenter=D5
sample=Cor_tremolo_FF_D5.opus
tune=-20.00
</region>

<region>
hivel=127
key=e3
loop_end=228609
loop_mode=loop_continuous
loop_start=74313
loop_xfade=18696
lovel=1
lpc=zh4FQmGrwMKLnNxCELOCwk2350E8aLDBTJebQadxfcHeUqFBurarwZNfSkH0wsc/m1UYwdJpnj8vEidBHikmwSkxY0A339I/llFawMZtWEAfvZ0/uKH1wPdizEAsva+/
lpc_rms=-18.14
offset=1589
sample=Cor_tremolo_FF_E3.opus
tune=-20.00
</region>

<region>
hikey=e4
hivel=127
lokey=d#4
loop_end=269054
loop_mode=loop_continuous
loop_start=87460
loop_xfade=22004
lovel=1
lpc=6VfiQdlBlsIsQ41CI/DMwRY8hz+Yql9AHw8tQMFuP8ERgSVByK4UwQIegEH3457BuDSiQYldk8EkACRB7sEMQBjEGsHedyJBRzYSwf1U80CGnpbAcsCeQH+AxsDktkBA
lpc_rms=-18.14
offset=344
pitch_keycenter=e4
sample=Cor_tremolo_FF_E4.opus
tune=-20.00
</region>

<region>
hikey=f#3
hivel=127
lokey=f3
loop_end=254268
loop_mode=loop_continuous
loop_start=82654
loop_xfade=20794
lovel=1
lpc=7kZKQssBB8MwMAxDmryywjFLPULHSX3Bqw8qQX/P5cCLLSZBO82twXDIGEGTv1jABW4RQCXJZMDlUK1BhvKBwSprPr+zzXVAPcDYwGX9z0BPlaPAh0N7wHjNYUHn8OrA
lpc_rms=-17.03
offset=6775
pitch_keycenter=f#3
sample=Cor_tremolo_FF_F#3.opus
tune=-20.00
</region>

<region>
hikey=f#4
hivel=127
lokey=f4
loop_end=272982
loop_mode=loop_continuous
loop_start=88737
loop_xfade=22325
lovel=1
lpc=yfNWQkkBDsPmFx5D/IvnwmGufkLYydrBZ/73Qd0478FkwTJBDaDeQBDcg8E/UV9BIv+FwW3tjUGcNw/B1em9QPqmkkBexmfBecnGQH4rC8GXu5BB4zeEwaAXdUGF//jA
lpc_rms=-16.87
offset=1594
pitch_keycenter=f#4
sample=Cor_tremolo_FF_F#4.opus
tune=-20.00
</region>

<region>
hikey=f5
hivel=127
lokey=e5
loop_end=259665
loop_mode=loop_continuous
loop_start=84408
loop_xfade=21236
lovel=1
lpc=wyYcQqA6iMIkS7xBqvQPQrhF7sEo5ALBj7/qQXDfh8FaNn6/hIlnQe3XxsHBan5Bjg6hQaIg9MERIBNBKP0VQStRFsGhENhAx37AP6dgXMFlIr5Be0FlwE30wME3T6FB
lpc_rms=-16.83
offset=211
pitch_keycenter=f5
sample=Cor_tremolo_FF_F5.opus
tune=-20.00
</region>

<region>
hikey=g#3
hivel=127
lokey=g3
loop_end=273632
loop_mode=loop_continuous
loop_start=88949
loop_xfade=22378
lovel=1
lpc=SRUFQl1BtsKxw8JCN8FUwtHvT0H0x5Y/z3llQBUFccD8qQtAWM8XwPgkwcBSUBFBTlQ2wHSUKL+0Mp1AcYFtwDctDcCE8KQ/7keGP6FE3D6cSbjA/JKrQAa37D9huxfA
lpc_rms=-18.12
offset=2160
pitch_keycenter=g#3
sample=Cor_tremolo_FF_G#3.opus
tune=-20.00
</region>

<region>
hikey=g#4
hivel=127
lokey=g4
loop_end=273150
loop_mode=loop_continuous
loop_start=88792
loop_xfade=22339
lovel=1
lpc=WQ0pQmrh6MLX8vhCf4OJwgtsq0F144e/YqjwPqTRAcEcBlxB6PRGwZ0L60BSHbu/CryFwCc72UDTeMTAZwEoQUo3isGiFmJB37/DwJo6tT/lCrm6cfM1QKcru8Dm+VJA
lpc_rms=-15.01
offset=414
pitch_keycenter=g#4
sample=Cor_tremolo_FF_G#4.opus
tune=-20.00
</region>

<region>
hikey=D6
hivel=127
lokey=f#5
loop_end=260266
loop_mode=loop_continuous
loop_start=84604
loop_xfade=21285
lovel=1
lpc=UZjdQhXBYsMqhnRDoukUw+p1GEJEdhtCHC4HwSSxFMLcjltCtunzwflDJUCRuxFCg2kSwdJ1IMI4X51CoE9fwkI+VEGvo3dBmO3EQQ8pG8LUXshBsuCnQLU/iMHUQN9B
lpc_rms=-8.25
offset=5977
pitch_keycenter=G5
sample=Cor_tremolo_FF_G5.opus
tune=-20.00
</region>
</group>